
<svg width="736px" height="305px" viewBox="351 347 736 305" version="1.1" xmlns="http://www.w3.org/2000/svg" xmlns:xlink="http://www.w3.org/1999/xlink">
    <defs>
        <rect id="path-1" x="16.7282158" y="106.465116" width="247.881743" height="164.260465" rx="9.12"></rect>
        <mask id="mask-2" maskContentUnits="userSpaceOnUse" maskUnits="objectBoundingBox" x="0" y="0" width="247.881743" height="164.260465" fill="white">
            <use xlink:href="#path-1"></use>
        </mask>
        <rect id="path-3" x="663.045643" y="199.24186" width="69.9543568" height="101.902326" rx="6.08"></rect>
        <mask id="mask-4" maskContentUnits="userSpaceOnUse" maskUnits="objectBoundingBox" x="0" y="0" width="69.9543568" height="101.902326" fill="white">
            <use xlink:href="#path-3"></use>
        </mask>
    </defs>
    <g id="Group" stroke="none" stroke-width="1" fill="none" fill-rule="evenodd" transform="translate(354.000000, 349.000000)">
        <path d="M459.218037,234.180147 L454.798366,234.180147 L454.798366,243.016134 L445.959025,243.016134 L445.959025,247.436337 L454.798366,247.436337 L454.798366,256.276744 L459.218037,256.276744 L459.218037,247.436337 L468.057378,247.436337 L468.057378,243.016134 L459.218037,243.016134 L459.218037,234.180147 L459.218037,234.180147 Z M506.4157,238.60035 C503.19376,238.60035 500.581734,241.212691 500.581734,244.435019 C500.581734,247.657347 503.19376,250.269688 506.4157,250.269688 C509.63764,250.269688 512.249665,247.657347 512.249665,244.435019 C512.249665,241.212691 509.642059,238.60035 506.4157,238.60035 L506.4157,238.60035 Z M544.38951,283.443315 L532.200058,226.082334 C530.463128,217.913798 523.254645,212.07913 514.905887,212.07913 L447.726893,212.07913 C439.378135,212.07913 432.169652,217.918218 430.432722,226.082334 L418.24327,283.443315 C416.462143,291.8196 421.809945,300.045599 430.180801,301.826941 C431.555318,302.118675 432.938675,302.260121 434.313193,302.260121 C440.063184,302.260121 445.614291,299.762706 449.437306,295.28504 L463.87637,278.377762 L498.76083,278.377762 L513.199894,295.28504 C517.022909,299.758286 522.574015,302.260121 528.319587,302.260121 C529.694105,302.260121 531.081881,302.118675 532.456399,301.822521 C540.822836,300.045599 546.170637,291.81518 544.38951,283.443315 L544.38951,283.443315 Z M538.520187,292.699221 C536.907007,295.183375 534.427572,296.885154 531.532688,297.503982 C530.476387,297.729412 529.393567,297.844338 528.315168,297.844338 C523.785005,297.844338 519.497925,295.868507 516.554424,292.420748 L502.11536,275.51347 L500.798298,273.957558 L498.76083,273.957558 L463.87637,273.957558 L461.838902,273.957558 L460.51742,275.50905 L446.078356,292.416328 C443.134855,295.864087 438.847775,297.839918 434.313193,297.839918 C433.234793,297.839918 432.156393,297.729412 431.100092,297.503982 C425.124697,296.230964 421.297263,290.334412 422.565708,284.362717 L434.75516,227.001736 C436.050123,220.915116 441.503997,216.499333 447.726893,216.499333 L514.905887,216.499333 C521.128783,216.499333 526.582657,220.915116 527.873201,227.001736 L540.062652,284.362717 C540.681406,287.25795 540.133367,290.215067 538.520187,292.699221 L538.520187,292.699221 Z" id="Shape" fill="#FFFFFF"></path>
        <path d="M135.934574,99.1575218 C135.934574,99.1575218 135.934574,95.0677229 135.934574,90.0365074 L135.934574,0.322403119 L546.588897,0.322403119 L546.588897,101.757772" id="Path-4" stroke="#FFFFFF" stroke-width="4.56"></path>
        <path d="M272.516654,257.797674 L416.684647,257.797674" id="Path-5" stroke="#FFFFFF" stroke-width="4.56"></path>
        <path d="M524.657676,206.020288 C524.657676,206.020288 524.657676,203.298633 524.657676,199.941415 L524.657676,121.660116 C524.657676,116.628096 528.745302,112.548837 533.767768,112.548837 L643.290324,112.548837 C648.321688,112.548837 652.400415,116.627262 652.400415,121.660321 L652.400415,290.380255 C652.400415,295.412388 648.319259,299.491738 643.280486,299.491738 L549.641491,299.491739" id="Path-6" stroke="#FFFFFF" stroke-width="4.56"></path>
        <ellipse id="Oval-5" stroke="#FFFFFF" stroke-width="4.56" cx="590.049793" cy="238.786047" rx="36.4979253" ry="36.5023256"></ellipse>
        <ellipse id="Oval-5" fill="#FFFFFF" cx="591.570539" cy="159.697674" rx="4.56224066" ry="4.5627907"></ellipse>
        <path d="M0,292.77907 L282.189789,292.77907" id="Path-3" stroke="#FFFFFF" stroke-width="4.56"></path>
        <use id="Rectangle" stroke="#FFFFFF" mask="url(#mask-2)" stroke-width="9.12" xlink:href="#path-1"></use>
        <use id="Rectangle-7" stroke="#FFFFFF" mask="url(#mask-4)" stroke-width="9.12" xlink:href="#path-3"></use>
        <ellipse id="Oval-6" fill="#FFFFFF" cx="698.022822" cy="282.893023" rx="3.04149378" ry="3.04186047"></ellipse>
    </g>
</svg>
